<?xml version="1.0" encoding="UTF-8"?>
<svg id="katman_1" xmlns="http://www.w3.org/2000/svg" version="1.1" viewBox="0 0 123.11 40.67">
  <!-- Generator: Adobe Illustrator 30.3.0, SVG Export Plug-In . SVG Version: 2.1.3 Build 182)  -->
  <defs>
    <style>
      .st0 {
        fill: #ea5b0c;
      }

      .st1 {
        fill: #878787;
      }
    </style>
  </defs>
  <g>
    <path class="st0" d="M104.37,20.56c.74-.98,1.31-1.83,1.7-2.55.76-1.38,1.14-2.78,1.14-4.21,0-2.25-.82-4.14-2.46-5.67-1.63-1.52-3.64-2.29-6.04-2.29-4.97,0-7.78,2.78-8.41,8.33h3.96c.39-3.15,1.91-4.73,4.57-4.73,1.27,0,2.34.41,3.21,1.24.87.83,1.3,1.86,1.3,3.09,0,.85-.33,1.82-.97,2.89-.32.54-.78,1.22-1.39,2.03-.61.81-1.36,1.76-2.26,2.87l-9.15,11.07h11.29l4.45-3.74h-7.86l4.1-4.85c1.14-1.34,2.08-2.51,2.82-3.49Z"/>
    <g>
      <path class="st1" d="M110.09,27.01c-.2.39-.44.86-.62,1.24-.12-.24-.41-.82-.62-1.24h-.54l.88,1.61s.02.05.02.08v1.04h.48v-1.05s0-.05.02-.08l.89-1.6h-.5Z"/>
      <path class="st1" d="M110.86,27.01v2.72h.48v-2.72h-.48Z"/>
      <path class="st1" d="M112.47,29.33v-2.33h-.48v2.72h1.69l.06-.4h-1.26Z"/>
    </g>
  </g>
  <g>
    <g>
      <path class="st1" d="M70.19,13.75l.96,2.27c-1.95,1.91-4.32,2.91-6.87,2.91-4.82,0-8.29-3.58-8.29-8.12,0-4.61,3.61-8.19,8.22-8.19,3.83,0,6.77,2.52,7.34,6.45l-12.65,4.11c.85,2.06,2.84,3.47,5.42,3.47,2.2,0,4.18-.96,5.88-2.91ZM58.42,10.81v.14s10.21-3.3,10.21-3.3c-.67-1.7-2.41-2.76-4.47-2.76-3.22,0-5.74,2.62-5.74,5.92Z"/>
      <path class="st1" d="M86.81,9.18v9.39h-2.48v-9.18c0-2.94-1.67-4.47-4.04-4.47-2.59,0-4.47,1.84-4.47,4.82v8.82h-2.48V3.19s2.34-.46,2.34-.46v2.13c1.17-1.42,2.91-2.23,4.96-2.23,3.54,0,6.17,2.37,6.17,6.56Z"/>
      <path class="st1" d="M48.62,2.62c-2.23,0-4.08,1.06-5.14,2.87-.96-1.88-2.69-2.87-4.75-2.87-1.8,0-3.33.78-4.36,2.14l-2.41,4.87v8.93s2.48,0,2.48,0v-9.11c0-2.8,1.67-4.54,3.93-4.54,2.06,0,3.51,1.42,3.51,4.18v9.46s2.48,0,2.48,0v-9.11c0-2.8,1.67-4.54,3.93-4.54,2.06,0,3.51,1.42,3.51,4.18v9.46s2.48,0,2.48,0v-9.67c0-4.04-2.41-6.27-5.67-6.27Z"/>
      <path class="st1" d="M15.82,13.75l.96,2.27c-1.95,1.91-4.32,2.91-6.87,2.91-4.82,0-8.29-3.58-8.29-8.12,0-4.61,3.61-8.19,8.22-8.19,3.83,0,6.77,2.52,7.34,6.45l-12.65,4.11c.85,2.06,2.84,3.47,5.42,3.47,2.2,0,4.18-.96,5.88-2.91ZM4.05,10.81v.14s10.21-3.3,10.21-3.3c-.67-1.7-2.41-2.76-4.47-2.76-3.22,0-5.74,2.62-5.74,5.92Z"/>
      <polygon class="st1" points="21.6 20.19 24.27 20.19 32.77 2.97 30.01 2.97 24.83 13.82 19.66 2.97 16.89 2.97 23.52 16.4 21.6 20.19"/>
    </g>
    <g>
      <path class="st0" d="M86.32,21.95c0-.07-.1-.09-.14-.03l-7.12,11.24s-.1.05-.13,0l-7.16-11.25c-.04-.06-.13-.04-.14.03l-1.84,13.59s0,.03,0,.04l1.59,3.27s.04.04.07.04h1.14s.07-.03.08-.07l.95-8.23c0-.07.1-.09.14-.03l5.12,7.94s.1.05.13,0l5.15-7.94c.04-.06.13-.04.14.03l.92,8.23s.04.07.08.07h3.22s.08-.04.08-.09l-2.28-16.86Z"/>
      <path class="st0" d="M66.6,38.9h3.33c.06,0,.09-.06.07-.11l-8.14-16.7c-.03-.06-.11-.06-.14,0l-8.14,16.7c-.02.05.01.11.07.11h3.3s.06-.02.07-.05l1.09-2.44s.04-.05.07-.05h3.1c.51,0,.97-.3,1.18-.77l.99-2.21c.02-.05-.01-.11-.07-.11h-3.75c-.06,0-.09-.06-.07-.11l2.16-4.84c.03-.06.11-.06.14,0l4.66,10.52s.04.05.07.05Z"/>
      <path class="st0" d="M10.35,38.87l-4.62-6.55c-.04-.06-.14-.03-.14.04v6.46s-.03.08-.08.08h-3.22s-.08-.03-.08-.08v-16.12s.03-.08.08-.08h5.72c3.5,0,5.93,2.06,5.93,5.07,0,2.45-1.59,4.3-4.01,4.92-.05.01-.08.08-.04.12l4.58,6.04c.04.05,0,.12-.06.12h-4s-.05-.01-.06-.03ZM5.59,30.57s.03.08.08.08h1.89c1.8,0,3.01-1.08,3.01-2.65,0-1.57-1.21-2.65-3.01-2.65h-1.89s-.08.03-.08.08v5.15Z"/>
      <path class="st0" d="M27.06,36.14l-.46,2.69s-.04.06-.08.06h-10.53s-.08-.03-.08-.08v-16.12s.03-.08.08-.08h10.24s.07.03.08.06l.46,2.69s-.03.09-.08.09h-7.46s-.08.03-.08.08v3.58s.03.08.08.08h6.03s.08.03.08.08v2.69s-.03.08-.08.08h-6.03s-.08.03-.08.08v3.84s.03.08.08.08h7.76s.08.04.08.09Z"/>
      <path class="st0" d="M37.74,38.87l-5.5-7.27c-.04-.06-.14-.03-.14.05v7.18s-.03.08-.08.08h-3.25s-.08-.03-.08-.08v-16.12s.03-.08.08-.08h3.25s.08.03.08.08v7.33c0,.07.1.11.14.05l5.4-7.42s.04-.03.06-.03h3.97c.06,0,.1.07.06.12l-6.03,8.06s-.02.07,0,.09l6.12,7.87c.04.05,0,.12-.06.12h-3.96s-.05-.01-.06-.03Z"/>
      <path class="st0" d="M43.16,22.63h3.25s.08.03.08.08v13.04s.03.08.08.08h6.99c.06,0,.09.06.07.11l-1.43,2.92s-.04.04-.07.04h-8.97s-.08-.03-.08-.08v-16.12s.03-.08.08-.08Z"/>
    </g>
  </g>
  <path class="st1" d="M120.4,28.32c0,2.78-.93,5.06-2.8,6.86-1.87,1.8-4.21,2.7-7.05,2.7s-5.3-1.14-7.18-3.41c-.38-.46-.74-.96-1.08-1.51l.38-.33,2.62-2.22c.4.67.8,1.26,1.2,1.74.14.17.28.33.42.48.29.31.59.56.89.77.84.57,1.87.85,3.09.85,1.59,0,2.93-.56,4.01-1.67,1.08-1.15,1.62-2.54,1.62-4.18s-.53-3.06-1.6-4.13c-1.07-1.1-2.41-1.66-4.01-1.66-1.79,0-3.33.78-4.62,2.34h-1.32l4.15-13.86h10.89v3.72h-8.12l-1.3,4.37c.19-.02.38-.04.55-.05.18-.01.34-.02.49-.02,2.56,0,4.66.87,6.3,2.59,1.65,1.72,2.47,3.92,2.47,6.6Z"/>
</svg>